SplineFontDB: 3.0
FontName: Whois-mono
FullName: Whois-mono
FamilyName: Whois
Weight: Medium
Copyright: Created by raphael with FontForge 2.0 (http://fontforge.sf.net)
UComments: "2012-6-10: Created." 
Version: 001.000
ItalicAngle: 0
UnderlinePosition: -80
UnderlineWidth: 40
Ascent: 620
Descent: 180
LayerCount: 2
Layer: 0 0 "Back"  1
Layer: 1 0 "Fore"  0
NeedsXUIDChange: 1
XUID: [1021 366 1577494475 6750967]
OS2Version: 0
OS2_WeightWidthSlopeOnly: 0
OS2_UseTypoMetrics: 1
CreationTime: 1339350769
ModificationTime: 1339356885
OS2TypoAscent: 0
OS2TypoAOffset: 1
OS2TypoDescent: 0
OS2TypoDOffset: 1
OS2TypoLinegap: 0
OS2WinAscent: 0
OS2WinAOffset: 1
OS2WinDescent: 0
OS2WinDOffset: 1
HheadAscent: 0
HheadAOffset: 1
HheadDescent: 0
HheadDOffset: 1
OS2Vendor: 'PfEd'
DEI: 91125
Encoding: ISO8859-1
UnicodeInterp: none
NameList: Adobe Glyph List
DisplaySize: -24
AntiAlias: 1
FitToEm: 1
WinInfo: 16 16 10
Grid
-800 520 m 0
 1600 520 l 0
  Named: "top" 
-800 -130 m 0
 1600 -130 l 0
  Named: "lowercase desc" 
-800 390.4 m 0
 1600 390.4 l 0
  Named: "lowercase top" 
EndSplineSet
BeginChars: 256 256

StartChar: a
Encoding: 97 97 0
Width: 390
VWidth: 0
Flags: HWO
LayerCount: 2
Fore
SplineSet
72.5312 349 m 0
 92.5312 373 128.531 391 180.531 391 c 0
 232.531 391 269.531 371 288.531 338 c 0
 304.531 311 309.531 263 309.531 224 c 0
 309.531 185 309.531 140 309.531 97 c 1
 309.531 97 307.531 84 312.531 73 c 0
 317.531 62 323.531 43 349.531 41 c 1
 349.531 -1 l 1
 296.531 2 278.531 34 278.531 34 c 1
 276.531 34 l 1
 276.531 34 239.531 0 162.531 0 c 0
 106.531 0 68.5312 30 52.5312 63 c 0
 36.5312 96 38.5312 126 46.5312 149 c 0
 62.5312 194 99.5312 217 137.531 224 c 0
 157.531 227 177.531 227 198.531 227 c 0
 217.531 227 238.531 226 258.531 226 c 1
 258.531 264 254.531 296 244.531 313 c 0
 234.531 330 221.531 340 180.531 340 c 0
 139.531 340 122.531 328 111.531 316 c 0
 100.531 304 96.5312 287 94.5312 273 c 1
 47.5312 281 l 1
 47.5312 297 52.5312 325 72.5312 349 c 0
243.531 72 m 0
 254.531 81 256.531 89 257.531 93 c 0
 258.531 97 258.531 175 258.531 175 c 1
 220.531 175 183.531 179 145.531 174 c 1
 116.531 169 103.531 163 93.5312 132 c 0
 91.5312 124 91.5312 103 99.5312 85 c 0
 107.531 67 121.531 52 163.531 51 c 0
 207.531 50 231.531 61 243.531 72 c 0
EndSplineSet
EndChar

StartChar: b
Encoding: 98 98 1
Width: 390
VWidth: 0
Flags: HW
LayerCount: 2
Fore
SplineSet
36.5 522 m 1
 86.5 522 l 1
 86.5 344 l 1
 111.5 371 148.5 390 194.5 390 c 0
 250.5 390 294.5 360 318.5 322 c 0
 342.5 284 353.5 237 353.5 195 c 0
 353.5 153 342.5 106 318.5 68 c 0
 294.5 30 251.5 0 194.5 0 c 0
 148.5 0 111.5 19 86.5 46 c 1
 76.5 0 l 5
 36.5 0 l 1
 36.5 195 l 1
 36.5 522 l 1
194.5 339 m 0
 153.5 339 130.5 322 113.5 295 c 0
 96.5 268 86.5 230 86.5 195 c 0
 86.5 160 96.5 122 113.5 95 c 0
 130.5 68 153.5 51 194.5 51 c 0
 235.5 51 259.5 68 276.5 95 c 0
 293.5 122 301.5 160 301.5 195 c 0
 301.5 230 293.5 268 276.5 295 c 0
 259.5 322 235.5 339 194.5 339 c 0
EndSplineSet
EndChar

StartChar: c
Encoding: 99 99 3
Width: 390
VWidth: 0
Flags: HW
LayerCount: 2
Fore
SplineSet
198.5 390 m 0
 238.5 390 272.5 376 296.5 353 c 0
 320.5 330 332.5 298 335.5 264 c 1
 285.5 260 l 1
 283.5 284 274.5 304 260.5 317 c 0
 246.5 330 227.5 339 198.5 339 c 0
 157.5 339 138.5 323 122.5 296 c 0
 106.5 269 100.5 231 100.5 195 c 0
 100.5 160 108.5 122 125.5 95 c 0
 142.5 68 166.5 51 207.5 51 c 0
 235.5 51 252.5 59 265.5 71 c 0
 278.5 83 286.5 101 289.5 122 c 1
 340.5 114 l 1
 335.5 85 322.5 56 300.5 35 c 0
 278.5 14 245.5 0 207.5 0 c 0
 150.5 0 107.5 30 83.5 68 c 0
 59.5 106 49.5 153 49.5 195 c 0
 49.5 237 56.5 284 78.5 322 c 0
 100.5 360 142.5 390 198.5 390 c 0
EndSplineSet
EndChar

StartChar: d
Encoding: 100 100 4
Width: 390
VWidth: 0
Flags: HW
LayerCount: 2
Fore
SplineSet
303 522 m 1
 353 522 l 1
 353 2 l 1
 312 2 l 1
 303 46 l 1
 278 19 241 0 195 0 c 0
 138 0 95 30 71 68 c 0
 47 106 37 153 37 195 c 0
 37 237 47 284 71 322 c 0
 95 360 139 390 195 390 c 0
 241 390 278 372 303 344 c 1
 303 522 l 1
195 339 m 0
 154 339 131 322 114 295 c 0
 97 268 88 230 88 195 c 0
 88 160 96 122 113 95 c 0
 130 68 154 51 195 51 c 0
 236 51 259 68 276 95 c 0
 293 122 303 160 303 195 c 0
 303 230 293 268 276 295 c 0
 259 322 236 339 195 339 c 0
EndSplineSet
EndChar

StartChar: e
Encoding: 101 101 5
Width: 390
VWidth: 0
Flags: HW
LayerCount: 2
Fore
SplineSet
98 174 m 1
 100 141 107.477 110 121.477 90 c 0
 137.477 66 159.477 53 194.477 51 c 0
 194.477 51 l 0
 226.477 51 246.477 60 260.477 72 c 0
 274.477 84 282.477 99 287.477 115 c 1
 336.477 100 l 1
 329.477 78 315.477 53 292.477 33 c 0
 269.477 13 236.477 0 194.477 0 c 2
 193.477 0 l 1
 193.477 0 l 1
 143.477 2 103.477 26 79.4766 62 c 0
 55.4766 98 46.4766 142 46.4766 189 c 0
 46.4766 235 52.4766 284 74.4766 322 c 0
 96.4766 360 137.477 388 193.477 389 c 1
 194.477 389 l 1
 194.477 389 l 2
 232.477 388 271.477 379 300.477 348 c 0
 329.477 317 344.5 267 343.5 198 c 2
 343 174 l 1
 98 174 l 1
177.477 336 m 0
 141.477 330 104.477 295 100.477 224 c 1
 291.5 224 l 1
 289.5 270 280.477 293 264.477 313 c 0
 248.477 333 213.477 342 177.477 336 c 0
EndSplineSet
EndChar

StartChar: f
Encoding: 102 102 6
Width: 390
VWidth: 0
Flags: HW
LayerCount: 2
Fore
SplineSet
234 519 m 1
 287 518 336 487 354 419 c 1
 317 404 l 1
 299 457 255 474 219 468 c 0
 184 462 163 438 169 392 c 0
 172 368 176 351 178 335 c 1
 299 335 l 1
 299 284 l 1
 183 284 l 1
 183 0 l 1
 132 0 l 1
 132 284 l 1
 36 284 l 1
 36 335 l 1
 126 335 l 1
 124 350 122 364 120 385 c 0
 114 439 134 515 234 519 c 1
EndSplineSet
EndChar

StartChar: g
Encoding: 103 103 7
Width: 390
VWidth: 0
Flags: HW
LayerCount: 2
Fore
SplineSet
358.011 389 m 1
 358.011 381 357.011 375 355.011 367 c 0
 348.011 348 334.011 330 306.011 322 c 1
 333.011 299 338.011 265 338.011 244 c 0
 338.011 190 286.011 135 195.011 134 c 0
 136.011 134 114.011 127 111.011 109 c 0
 108.011 91 113.011 65 182.011 65 c 0
 251.011 65 270.011 61 306.011 45 c 0
 342.011 29 357.011 -2 357.011 -36 c 0
 357.011 -70 350.011 -79 337.011 -94 c 0
 324.011 -109 306.011 -117 289.011 -122 c 0
 255.011 -131 219.011 -131 195.011 -131 c 0
 170.011 -131 133.011 -131 100.011 -121 c 0
 83.0107 -116 65.0107 -108 52.0107 -93 c 0
 39.0107 -78 32.0107 -62 32.0107 -38 c 0
 31.0107 4 66.0107 42 108.011 50 c 1
 108.011 51 l 1
 66.0107 62 65.0107 88 66.0107 104 c 0
 68.0107 147 108.011 160 108.011 160 c 1
 108.011 161 l 1
 108.011 161 51.0107 184 51.0107 244 c 0
 51.0107 268 56.0107 298 79.0107 322 c 0
 102.011 346 141.011 364 195.011 364 c 0
 226.011 364 251.011 358 271.011 349 c 1
 288.011 351 306.011 364 307.011 389 c 1
 358.011 389 l 1
195.011 313 m 0
 151.011 313 128.011 301 117.011 288 c 0
 106.011 275 101.011 259 101.011 244 c 0
 101.011 221 119.011 184 195.011 184 c 0
 268.011 184 288.011 222 288.011 244 c 0
 288.011 259 282.011 275 271.011 288 c 0
 260.011 301 239.011 313 195.011 313 c 0
194.011 19 m 0
 151.011 19 83.0107 14 83.0107 -37 c 0
 83.0107 -88 156.011 -86 195.011 -86 c 0
 234.011 -86 306.011 -89 306.011 -38 c 0
 306.011 13 237.011 19 194.011 19 c 0
EndSplineSet
EndChar

StartChar: h
Encoding: 104 104 8
Width: 390
VWidth: 0
Flags: HWO
LayerCount: 2
Fore
SplineSet
46.25 520 m 1
 96.25 520 l 1
 96.25 322 l 1
 107.25 357 158.25 388 204.25 388 c 0
 258.25 388 285.012 368.984 309.75 336 c 0
 327.75 312 343.75 263 343.75 221 c 2
 343.75 0 l 1
 291.75 0 l 1
 291.75 221 l 2
 291.75 256 284.803 275.4 272.75 298 c 0
 264.75 313 247.25 336 204.25 336 c 0
 163.25 336 136.25 319.5 119.25 292.5 c 0
 102.25 265.5 96.25 228 96.25 193 c 2
 96.25 0 l 1
 46.25 0 l 1
 46.25 193 l 1
 46.25 520 l 1
EndSplineSet
EndChar

StartChar: i
Encoding: 105 105 9
Width: 390
VWidth: 0
Flags: HW
LayerCount: 2
Fore
SplineSet
49 390 m 1
 220 390 l 1
 220 52 l 1
 361 52 l 1
 361 0 l 1
 29 0 l 1
 29 52 l 1
 170 52 l 1
 170 339 l 1
 49 339 l 1
 49 390 l 1
243 521 m 0
 243 494 222 472 195 472 c 0
 168 472 147 494 147 521 c 0
 147 548 168 569 195 569 c 0
 222 569 243 548 243 521 c 0
EndSplineSet
EndChar

StartChar: j
Encoding: 106 106 10
Width: 390
VWidth: 0
Flags: HW
LayerCount: 2
Fore
SplineSet
107.375 390.4 m 1
 327.375 390.4 l 1
 327.375 59.4004 l 1
 327.375 59.4004 330.375 -14.5996 313.375 -56.5996 c 0
 296.375 -98.5996 253.375 -136.6 182.375 -136.6 c 0
 111.375 -136.6 75.375 -98.5996 61.375 -61.5996 c 0
 47.375 -24.5996 56.375 9.40039 56.375 9.40039 c 1
 101.375 1.40039 l 1
 101.375 1.40039 98.375 -22.5996 106.375 -43.5996 c 0
 114.375 -64.5996 126.375 -91.5996 182.375 -91.5996 c 0
 238.375 -91.5996 254.375 -66.5996 265.375 -37.5996 c 0
 276.375 -8.59961 275.375 59.4004 275.375 59.4004 c 1
 275.375 339.4 l 1
 107.375 339.4 l 1
 107.375 390.4 l 1
340.375 521.4 m 0
 340.375 494.4 319.375 472.4 292.375 472.4 c 0
 265.375 472.4 244.375 494.4 244.375 521.4 c 0
 244.375 548.4 265.375 570.4 292.375 570.4 c 0
 319.375 570.4 340.375 548.4 340.375 521.4 c 0
EndSplineSet
EndChar

StartChar: k
Encoding: 107 107 11
Width: 390
VWidth: 0
Flags: HW
LayerCount: 2
Fore
SplineSet
36 521 m 1
 87 521 l 1
 87 167 l 1
 294 389 l 1
 331 355 l 1
 192 205 l 1
 354 5 l 1
 354 0 l 1
 291 0 l 1
 156 167 l 1
 87 93 l 1
 87 0 l 1
 36 0 l 1
 36 521 l 1
EndSplineSet
EndChar

StartChar: l
Encoding: 108 108 12
Width: 390
VWidth: 0
Flags: HW
LayerCount: 2
Fore
SplineSet
29 522 m 1
 220 522 l 1
 220 51 l 1
 361 51 l 1
 361 0 l 1
 29 0 l 1
 29 51 l 1
 170 51 l 1
 170 470 l 1
 29 470 l 1
 29 522 l 1
EndSplineSet
EndChar

StartChar: m
Encoding: 109 109 13
Width: 390
VWidth: 0
Flags: HW
LayerCount: 2
Fore
SplineSet
28 390 m 1
 69 390 l 1
 79 361 l 1
 95 377 111 391 140 390 c 0
 169 389 187 368 198 350 c 1
 214 371 235 390 273 390 c 0
 311 390 339 359 350 336 c 0
 361 313 362 292 362 280 c 2
 362 0 l 1
 310 0 l 1
 310 280 l 2
 310 289 311 304 306 315 c 0
 301 326 294 337 274 339 c 0
 258 341 245 334 234 323 c 0
 223 312 221 288 221 288 c 1
 221 0 l 1
 169 0 l 1
 169 280 l 2
 169 289 170 304 165 315 c 0
 160 326 153 337 133 339 c 0
 118 341 101 334 90 323 c 0
 83 315 79 305 79 294 c 2
 79 0 l 1
 28 0 l 1
 28 390 l 1
EndSplineSet
EndChar

StartChar: n
Encoding: 110 110 14
Width: 390
VWidth: 0
Flags: HW
LayerCount: 2
Fore
SplineSet
207 388 m 0
 254 388 285 367 309 330 c 0
 333 293 334 251 334 210 c 2
 334 0 l 1
 283 0 l 1
 283 210 l 2
 283 248 280 279 269 299 c 0
 258 319 244 332 211 337 c 0
 166 344 107 333 107 246 c 2
 107 0 l 1
 56 0 l 1
 56 388 l 1
 100 388 l 1
 107 355 l 1
 131 375 160 388 207 388 c 0
EndSplineSet
EndChar

StartChar: o
Encoding: 111 111 15
Width: 390
VWidth: 0
Flags: HW
LayerCount: 2
Fore
SplineSet
195 387 m 0
 252 387 295 358 319 320 c 0
 343 282 354 235 354 193 c 0
 354 151 344 105 320 67 c 0
 296 29 252 0 195 0 c 0
 138 0 94 29 70 67 c 0
 46 105 36 151 36 193 c 0
 36 235 46 282 70 320 c 0
 94 358 138 387 195 387 c 0
195 336 m 0
 154 336 131 319 114 292 c 0
 97 265 87 227 87 193 c 0
 87 159 96 121 113 94 c 0
 130 67 153 50 195 50 c 0
 237 50 260 67 277 94 c 0
 294 121 303 159 303 193 c 0
 303 227 294 265 277 292 c 0
 260 319 236 336 195 336 c 0
EndSplineSet
EndChar

StartChar: p
Encoding: 112 112 16
Width: 390
VWidth: 0
Flags: HW
LayerCount: 2
Fore
SplineSet
37 389 m 1
 78 388 l 1
 88 341 l 1
 113 369 149 389 195 389 c 0
 251 389 295 360 319 322 c 0
 343 284 353 236 353 194 c 0
 353 152 343 104 319 66 c 0
 295 28 252 -1 195 -1 c 0
 149 -1 113 18 88 46 c 1
 88 -140 l 1
 37 -140 l 1
 37 389 l 1
195 338 m 0
 154 338 126 321 109 294 c 0
 92 267 88 229 88 194 c 0
 88 159 91 121 108 94 c 0
 125 67 154 50 195 50 c 0
 236 50 260 67 277 94 c 0
 294 121 302 159 302 194 c 0
 302 229 294 267 277 294 c 0
 260 321 236 338 195 338 c 0
EndSplineSet
EndChar

StartChar: q
Encoding: 113 113 17
Width: 390
VWidth: 0
Flags: HW
LayerCount: 2
Fore
SplineSet
353 390 m 1
 353 -139 l 1
 302 -139 l 1
 302 47 l 1
 277 19 241 0 195 0 c 0
 138 0 94 29 70 67 c 0
 46 105 37 153 37 195 c 0
 37 237 47 285 71 323 c 0
 95 361 139 390 195 390 c 0
 241 390 277 370 302 342 c 1
 313 389 l 1
 353 390 l 1
195 339 m 0
 154 339 131 322 114 295 c 0
 97 268 88 230 88 195 c 0
 88 160 97 122 114 95 c 0
 131 68 154 51 195 51 c 0
 236 51 265 68 282 95 c 0
 299 122 301 160 301 195 c 0
 301 230 299 268 282 295 c 0
 265 322 236 339 195 339 c 0
EndSplineSet
EndChar

StartChar: r
Encoding: 114 114 18
Width: 390
VWidth: 0
Flags: HW
LayerCount: 2
Fore
SplineSet
51 390.4 m 1
 94 390.4 l 1
 102 343 l 1
 125 366 156 383 192 389 c 0
 223 394 254 389 283 373 c 0
 312 357 336 327 339 289 c 1
 287 284 l 1
 285 305 276 318 259 328 c 0
 242 338 213 343 188 338 c 0
 148 330 105 316 105 222 c 2
 105 0 l 1
 51 0 l 1
 51 390.4 l 1
EndSplineSet
EndChar

StartChar: s
Encoding: 115 115 19
Width: 390
VWidth: 0
Flags: HW
LayerCount: 2
Fore
SplineSet
94.084 354 m 0
 137.084 390 221.084 392 260.084 372 c 0
 299.084 352 317.084 329 324.084 296 c 1
 283.084 279 l 1
 274.084 303 263.084 317 247.084 325 c 0
 231.084 333 208.084 336 178.084 334 c 0
 152.084 332 129.084 322 116.084 307 c 0
 92.084 279 107.084 237 145.084 227 c 0
 183.084 217 234.084 214 272.084 203 c 0
 310.084 192 329.084 169 339.084 136 c 0
 349.084 103 339.084 66 314.084 40 c 0
 288.084 14 247.084 0 192.084 0 c 0
 137.084 0 101.084 13 77.084 35 c 0
 53.084 57 47.084 86 47.084 107 c 1
 94.084 111 l 1
 96.084 96 99.084 83 111.084 72 c 0
 123.084 61 145.084 50 192.084 50 c 0
 238.084 50 265.084 62 278.084 76 c 0
 291.084 90 295.084 106 290.084 125 c 0
 286.084 141 276.084 148 256.084 155 c 0
 212.084 169 169.084 170 131.084 180 c 0
 93.084 190 68.084 211 57.084 243 c 0
 44.084 278 51.084 318 94.084 354 c 0
EndSplineSet
EndChar

StartChar: t
Encoding: 116 116 20
Width: 390
VWidth: 0
Flags: HW
LayerCount: 2
Fore
SplineSet
150 475 m 1
 201 494 l 1
 201 388 l 1
 342 388 l 1
 342 336 l 1
 201 336 l 1
 201 51 l 1
 341 51 l 1
 341 0 l 1
 150 0 l 1
 150 336 l 1
 48 336 l 1
 48 388 l 1
 150 388 l 1
 150 475 l 1
EndSplineSet
EndChar

StartChar: u
Encoding: 117 117 21
Width: 390
VWidth: 0
Flags: HW
LayerCount: 2
Fore
SplineSet
184 -1 m 0
 137 -1 104 20 80 57 c 0
 56 94 56 136 56 177 c 2
 56 387 l 1
 107 387 l 1
 107 177 l 2
 107 139 110 108 121 88 c 0
 132 68 146 55 179 50 c 0
 224 43 283 55 283 142 c 2
 283 387 l 1
 334 387 l 1
 334 0 l 1
 291 0 l 1
 283 32 l 1
 259 12 231 -1 184 -1 c 0
EndSplineSet
EndChar

StartChar: v
Encoding: 118 118 22
Width: 390
VWidth: 0
Flags: HW
LayerCount: 2
Fore
SplineSet
34.5 387 m 1
 87.5 387 l 1
 193.5 77 l 1
 195.5 64 l 1
 198.5 77 l 1
 302.5 387 l 1
 355.5 387 l 1
 225.5 0 l 1
 166.5 0 l 1
 34.5 387 l 1
EndSplineSet
EndChar

StartChar: w
Encoding: 119 119 23
Width: 390
VWidth: 0
Flags: HW
LayerCount: 2
Fore
SplineSet
30 387 m 5
 82 387 l 5
 106 97 l 5
 171 267 l 5
 219 267 l 5
 284 98 l 5
 309 387 l 5
 360 387 l 5
 327 0 l 5
 273 0 l 5
 196 200 l 5
 195 204 l 5
 194 200 l 5
 118 0 l 5
 64 0 l 5
 30 387 l 5
EndSplineSet
EndChar

StartChar: x
Encoding: 120 120 24
Width: 390
VWidth: 0
Flags: HW
LayerCount: 2
Fore
SplineSet
34 390.4 m 1
 96 390.4 l 1
 194 242.4 l 1
 194.25 240.963 l 1
 194.781 240.963 l 1
 195 242.4 l 1
 295 390.4 l 1
 356 390.4 l 1
 225.5 198 l 1
 359.5 0 l 1
 298.5 0 l 1
 196.5 152 l 1
 195.812 154.125 l 1
 195.062 154.125 l 1
 194.5 152 l 1
 92.5 0 l 1
 30.5 0 l 1
 164.5 198 l 1
 34 390.4 l 1
EndSplineSet
EndChar

StartChar: y
Encoding: 121 121 25
Width: 390
VWidth: 0
Flags: HW
LayerCount: 2
Fore
SplineSet
34.5 390.4 m 1
 87.5 390.4 l 1
 193.5 109.4 l 1
 195.5 98.4004 l 1
 198.5 109.4 l 1
 302.5 390.4 l 1
 355.5 390.4 l 1
 214.5 2.40039 l 1
 214.5 2.40039 188.5 -54.5996 171.5 -77.5996 c 0
 132.5 -129.6 69.5 -134.6 60.5 -135.6 c 1
 60.5 -84.5996 l 1
 70.5 -82.5996 110.5 -76.5996 131.5 -47.5996 c 0
 148.5 -24.5996 170.5 31.4004 170.5 31.4004 c 1
 34.5 390.4 l 1
EndSplineSet
EndChar

StartChar: z
Encoding: 122 122 26
Width: 390
VWidth: 0
Flags: HW
LayerCount: 2
Fore
SplineSet
45.5 391 m 1
 340.5 391 l 1
 340.5 340 l 1
 105.5 51 l 1
 351.5 51 l 1
 351.5 0 l 1
 38.5 0 l 1
 38.5 50 l 1
 274.5 339 l 1
 45.5 339 l 1
 45.5 391 l 1
EndSplineSet
EndChar

StartChar: A
Encoding: 65 65 27
Width: 335
VWidth: 0
Flags: HWO
LayerCount: 2
Fore
SplineSet
146 484 m 25
 89 222 l 25
 210 222 l 25
 146 484 l 25
48 0 m 25
 0 0 l 25
 110 520 l 25
 170 520 l 25
 318 0 l 25
 266 0 l 25
 224 184 l 25
 81 184 l 25
 48 0 l 25
EndSplineSet
EndChar

